<?xml version="1.0" encoding="UTF-8"?>
<svg id="Layer_1" data-name="Layer 1" xmlns="http://www.w3.org/2000/svg" viewBox="0 0 198.43 198.43">
  <defs>
    <style>
      .cls-1 {
        fill: #e6e6e6;
      }

      .cls-2 {
        font-family: Roboto-Black, Roboto;
        font-size: 14px;
        font-weight: 800;
      }

      .cls-2, .cls-3 {
        fill: #fff;
      }

      .cls-3 {
        font-family: Roboto-Medium, Roboto;
        font-size: 11px;
        font-weight: 500;
        letter-spacing: -.02em;
      }

      .cls-4 {
        letter-spacing: -.03em;
      }

      .cls-5 {
        fill: #4462ac;
      }

      .cls-6 {
        letter-spacing: .03em;
      }
    </style>
  </defs>
  <rect class="cls-1" x="-1101.02" y="-2735.97" width="3930.35" height="5891"/>
  <rect class="cls-5" x="-2.98" y="-2.85" width="204.38" height="29.76"/>
  <text class="cls-2" transform="translate(81.08 17.82)"><tspan class="cls-6" x="0" y="0">K</tspan><tspan class="cls-4" x="9.31" y="0">AT</tspan><tspan class="cls-6" x="26.73" y="0">A</tspan></text>
  <g>
    <path class="cls-5" d="M35.5,111.44c0-.5-.18-.88-.53-1.16-.35-.27-.99-.54-1.9-.82-.92-.28-1.65-.58-2.19-.92-1.04-.65-1.55-1.5-1.55-2.55,0-.92.37-1.67,1.12-2.27.75-.59,1.72-.89,2.91-.89.79,0,1.5.15,2.12.44.62.29,1.11.71,1.46,1.25.35.54.53,1.14.53,1.79h-1.97c0-.59-.19-1.06-.56-1.39-.37-.34-.91-.5-1.6-.5-.65,0-1.15.14-1.5.41-.36.28-.54.66-.54,1.16,0,.42.19.76.58,1.04.39.28,1.02.55,1.91.81.89.26,1.6.56,2.13.9.54.34.93.72,1.18,1.16.25.44.38.94.38,1.53,0,.95-.36,1.7-1.09,2.26-.73.56-1.71.84-2.96.84-.82,0-1.58-.15-2.27-.46-.69-.3-1.23-.72-1.61-1.26-.38-.54-.57-1.16-.57-1.88h1.98c0,.65.21,1.15.64,1.5.43.35,1.04.53,1.84.53.69,0,1.2-.14,1.55-.42.35-.28.52-.65.52-1.11Z"/>
    <path class="cls-5" d="M48.45,108.98c0,1.12-.19,2.09-.58,2.93-.39.84-.94,1.49-1.65,1.94-.72.45-1.54.68-2.47.68s-1.74-.22-2.46-.68c-.72-.45-1.28-1.09-1.67-1.93-.39-.83-.59-1.79-.6-2.88v-.64c0-1.11.2-2.09.59-2.94.39-.85.95-1.5,1.66-1.95.72-.45,1.54-.68,2.46-.68s1.75.22,2.46.67c.72.45,1.27,1.09,1.66,1.92s.59,1.81.59,2.92v.63ZM46.47,108.38c0-1.26-.24-2.23-.71-2.9s-1.15-1.01-2.03-1.01-1.52.33-2,1c-.48.67-.73,1.62-.74,2.84v.66c0,1.25.24,2.22.73,2.9.49.68,1.16,1.02,2.03,1.02s1.55-.33,2.02-1c.47-.67.71-1.64.71-2.92v-.59Z"/>
    <path class="cls-5" d="M53.84,109.45l-1.29,1.37v3.55h-1.98v-11.38h1.98v5.34l1.09-1.35,3.33-3.98h2.39l-4.23,5.04,4.47,6.34h-2.34l-3.42-4.91Z"/>
    <path class="cls-5" d="M69.14,102.99v7.6c0,1.21-.39,2.17-1.16,2.87-.77.71-1.8,1.06-3.09,1.06s-2.34-.35-3.1-1.04-1.15-1.66-1.15-2.89v-7.59h1.97v7.61c0,.76.19,1.34.58,1.74.39.4.95.6,1.7.6,1.52,0,2.28-.8,2.28-2.41v-7.55h1.97Z"/>
    <path class="cls-5" d="M80.13,112.89c-.41.54-.98.94-1.71,1.22-.73.28-1.56.41-2.48.41s-1.8-.22-2.53-.65c-.73-.43-1.3-1.05-1.7-1.86s-.61-1.74-.62-2.82v-.89c0-1.72.41-3.06,1.23-4.03.82-.97,1.97-1.45,3.45-1.45,1.27,0,2.27.31,3.02.94.74.63,1.19,1.53,1.34,2.71h-1.94c-.22-1.37-1.01-2.05-2.38-2.05-.89,0-1.56.32-2.02.96-.46.64-.7,1.57-.71,2.81v.87c0,1.23.26,2.18.78,2.86.52.68,1.24,1.02,2.16,1.02,1.01,0,1.73-.23,2.16-.69v-2.23h-2.34v-1.5h4.31v4.36Z"/>
    <path class="cls-5" d="M84.55,114.37h-1.97v-11.38h1.97v11.38Z"/>
    <path class="cls-5" d="M99.03,104.59h-3.55v9.78h-1.96v-9.78h-3.52v-1.59h9.02v1.59Z"/>
    <path class="cls-5" d="M106.11,111.72h-4.41l-.92,2.65h-2.05l4.3-11.38h1.77l4.3,11.38h-2.06l-.93-2.65ZM102.26,110.13h3.3l-1.65-4.72-1.65,4.72Z"/>
    <path class="cls-5" d="M112.64,114.37h-1.97v-11.38h1.97v11.38Z"/>
    <path class="cls-5" d="M118.5,109.45l-1.29,1.37v3.55h-1.98v-11.38h1.98v5.34l1.09-1.35,3.33-3.98h2.39l-4.23,5.04,4.47,6.34h-2.34l-3.42-4.91Z"/>
    <path class="cls-5" d="M129.19,108.38l2.62-5.39h2.19l-3.81,7.19v4.19h-1.98v-4.19l-3.82-7.19h2.2l2.62,5.39Z"/>
    <path class="cls-5" d="M144.24,108.98c0,1.12-.19,2.09-.58,2.93-.39.84-.94,1.49-1.65,1.94-.72.45-1.54.68-2.47.68s-1.74-.22-2.46-.68c-.72-.45-1.28-1.09-1.67-1.93-.39-.83-.59-1.79-.6-2.88v-.64c0-1.11.2-2.09.59-2.94.39-.85.95-1.5,1.66-1.95.72-.45,1.54-.68,2.46-.68s1.75.22,2.46.67c.72.45,1.27,1.09,1.66,1.92s.59,1.81.59,2.92v.63ZM142.26,108.38c0-1.26-.24-2.23-.71-2.9s-1.15-1.01-2.03-1.01-1.52.33-2,1c-.48.67-.73,1.62-.74,2.84v.66c0,1.25.24,2.22.73,2.9.49.68,1.16,1.02,2.03,1.02s1.55-.33,2.02-1c.47-.67.71-1.64.71-2.92v-.59Z"/>
    <path class="cls-5" d="M149.63,109.45l-1.29,1.37v3.55h-1.98v-11.38h1.98v5.34l1.09-1.35,3.33-3.98h2.39l-4.23,5.04,4.47,6.34h-2.34l-3.42-4.91Z"/>
    <path class="cls-5" d="M164.93,102.99v7.6c0,1.21-.39,2.17-1.16,2.87-.77.71-1.8,1.06-3.09,1.06s-2.34-.35-3.1-1.04-1.15-1.66-1.15-2.89v-7.59h1.97v7.61c0,.76.19,1.34.58,1.74.39.4.95.6,1.7.6,1.52,0,2.28-.8,2.28-2.41v-7.55h1.97Z"/>
    <path class="cls-5" d="M66.38,130.64c0-.5-.18-.88-.53-1.16-.35-.27-.99-.54-1.9-.82-.92-.28-1.65-.58-2.19-.92-1.04-.65-1.55-1.5-1.55-2.55,0-.92.37-1.67,1.12-2.27.75-.59,1.72-.89,2.91-.89.79,0,1.5.15,2.12.44.62.29,1.11.71,1.46,1.25.35.54.53,1.14.53,1.79h-1.97c0-.59-.19-1.06-.56-1.39-.37-.34-.91-.5-1.6-.5-.65,0-1.15.14-1.5.41-.36.28-.54.66-.54,1.16,0,.42.19.76.58,1.04.39.28,1.02.55,1.91.81.89.26,1.6.56,2.13.9.54.34.93.72,1.18,1.16.25.44.38.94.38,1.53,0,.95-.36,1.7-1.09,2.26-.73.56-1.71.84-2.96.84-.82,0-1.58-.15-2.27-.46-.69-.3-1.23-.72-1.61-1.26-.38-.54-.57-1.16-.57-1.88h1.98c0,.65.21,1.15.64,1.5.43.35,1.04.53,1.84.53.69,0,1.2-.14,1.55-.42.35-.28.52-.65.52-1.11Z"/>
    <path class="cls-5" d="M79.32,128.18c0,1.12-.19,2.09-.58,2.93-.39.84-.94,1.49-1.65,1.94-.72.45-1.54.68-2.47.68s-1.74-.22-2.46-.68c-.72-.45-1.28-1.09-1.67-1.93-.39-.83-.59-1.79-.6-2.88v-.64c0-1.11.2-2.09.59-2.94.39-.85.95-1.5,1.66-1.95.72-.45,1.54-.68,2.46-.68s1.75.22,2.46.67c.72.45,1.27,1.09,1.66,1.92s.59,1.81.59,2.92v.63ZM77.35,127.58c0-1.26-.24-2.23-.71-2.9s-1.15-1.01-2.03-1.01-1.52.33-2,1c-.48.67-.73,1.62-.74,2.84v.66c0,1.25.24,2.22.73,2.9.49.68,1.16,1.02,2.03,1.02s1.55-.33,2.02-1c.47-.67.71-1.64.71-2.92v-.59Z"/>
    <path class="cls-5" d="M90.48,133.57h-1.98l-5.07-8.07v8.07h-1.98v-11.38h1.98l5.09,8.1v-8.1h1.96v11.38Z"/>
    <path class="cls-5" d="M102.05,128.18c0,1.12-.19,2.09-.58,2.93-.39.84-.94,1.49-1.65,1.94-.72.45-1.54.68-2.47.68s-1.74-.22-2.46-.68c-.72-.45-1.28-1.09-1.67-1.93-.39-.83-.59-1.79-.6-2.88v-.64c0-1.11.2-2.09.59-2.94.39-.85.95-1.5,1.66-1.95.72-.45,1.54-.68,2.46-.68s1.75.22,2.46.67c.72.45,1.27,1.09,1.66,1.92s.59,1.81.59,2.92v.63ZM100.07,127.58c0-1.26-.24-2.23-.71-2.9s-1.15-1.01-2.03-1.01-1.52.33-2,1c-.48.67-.73,1.62-.74,2.84v.66c0,1.25.24,2.22.73,2.9.49.68,1.16,1.02,2.03,1.02s1.55-.33,2.02-1c.47-.67.71-1.64.71-2.92v-.59Z"/>
    <path class="cls-5" d="M114.27,130.64c0-.5-.18-.88-.53-1.16-.35-.27-.99-.54-1.9-.82-.92-.28-1.65-.58-2.19-.92-1.04-.65-1.55-1.5-1.55-2.55,0-.92.37-1.67,1.12-2.27.75-.59,1.72-.89,2.91-.89.79,0,1.5.15,2.12.44.62.29,1.11.71,1.46,1.25.35.54.53,1.14.53,1.79h-1.97c0-.59-.19-1.06-.56-1.39-.37-.34-.91-.5-1.6-.5-.65,0-1.15.14-1.5.41-.36.28-.54.66-.54,1.16,0,.42.19.76.58,1.04.39.28,1.02.55,1.91.81.89.26,1.6.56,2.13.9.54.34.93.72,1.18,1.16.25.44.38.94.38,1.53,0,.95-.36,1.7-1.09,2.26-.73.56-1.71.84-2.96.84-.82,0-1.58-.15-2.27-.46-.69-.3-1.23-.72-1.61-1.26-.38-.54-.57-1.16-.57-1.88h1.98c0,.65.21,1.15.64,1.5.43.35,1.04.53,1.84.53.69,0,1.2-.14,1.55-.42.35-.28.52-.65.52-1.11Z"/>
    <path class="cls-5" d="M124.51,130.92h-4.41l-.92,2.65h-2.05l4.3-11.38h1.77l4.3,11.38h-2.06l-.93-2.65ZM120.66,129.33h3.3l-1.65-4.72-1.65,4.72Z"/>
    <path class="cls-5" d="M137.97,133.57h-1.98l-5.07-8.07v8.07h-1.98v-11.38h1.98l5.09,8.1v-8.1h1.96v11.38Z"/>
  </g>
  <text class="cls-3" transform="translate(167.5 17.69)"><tspan x="0" y="0">8ยบ</tspan></text>
</svg>