<?xml version="1.0" encoding="UTF-8"?>
<svg id="Layer_1" data-name="Layer 1" xmlns="http://www.w3.org/2000/svg" viewBox="0 0 198.43 198.43">
  <defs>
    <style>
      .cls-1 {
        font-family: Roboto-Black, Roboto;
        font-size: 14px;
        font-weight: 800;
        letter-spacing: .03em;
      }

      .cls-1, .cls-2 {
        fill: #fff;
      }

      .cls-3 {
        fill: #e6e6e6;
      }

      .cls-4 {
        fill: #ffc111;
      }

      .cls-2 {
        font-family: Roboto-Medium, Roboto;
        font-size: 11px;
        font-weight: 500;
        letter-spacing: -.02em;
      }

      .cls-5 {
        fill: #4462ac;
      }
    </style>
  </defs>
  <rect class="cls-3" x="-1306.58" y="-2324.06" width="3930.35" height="5891"/>
  <rect class="cls-5" x="-2.98" y="-2.85" width="204.38" height="29.76"/>
  <text class="cls-1" transform="translate(83.61 17.82)"><tspan x="0" y="0">KERI</tspan></text>
  <g>
    <path class="cls-5" d="M57.74,102.99h1.97v7.98c0,1.09-.34,1.95-1.02,2.59s-1.58.96-2.69.96c-1.19,0-2.1-.3-2.75-.9-.65-.6-.97-1.43-.97-2.5h1.97c0,.6.15,1.06.45,1.36.3.3.73.46,1.3.46.53,0,.95-.18,1.27-.53.31-.35.47-.84.47-1.46v-7.97Z"/>
    <path class="cls-5" d="M71.2,108.98c0,1.12-.19,2.09-.58,2.93-.39.84-.94,1.49-1.65,1.94-.72.45-1.54.68-2.47.68s-1.74-.22-2.46-.68c-.72-.45-1.28-1.09-1.67-1.93-.39-.83-.59-1.79-.6-2.88v-.64c0-1.11.2-2.09.59-2.94.39-.85.95-1.5,1.66-1.95.72-.45,1.54-.68,2.46-.68s1.75.22,2.46.67c.72.45,1.27,1.09,1.66,1.92s.59,1.81.59,2.92v.63ZM69.23,108.38c0-1.26-.24-2.23-.71-2.9s-1.15-1.01-2.03-1.01-1.52.33-2,1c-.48.67-.73,1.62-.74,2.84v.66c0,1.25.24,2.22.73,2.9.49.68,1.16,1.02,2.03,1.02s1.55-.33,2.02-1c.47-.67.71-1.64.71-2.92v-.59Z"/>
    <path class="cls-5" d="M73.33,114.37v-11.38h3.36c1,0,1.9.22,2.68.67.78.45,1.38,1.08,1.81,1.91.43.82.64,1.77.64,2.83v.57c0,1.08-.21,2.03-.64,2.84-.43.82-1.04,1.45-1.84,1.89-.79.44-1.7.66-2.73.66h-3.27ZM75.31,104.59v8.2h1.29c1.04,0,1.83-.32,2.39-.97s.84-1.58.85-2.79v-.63c0-1.23-.27-2.18-.8-2.83-.54-.65-1.32-.98-2.34-.98h-1.38Z"/>
    <path class="cls-5" d="M90.31,111.72h-4.41l-.92,2.65h-2.05l4.3-11.38h1.77l4.3,11.38h-2.06l-.93-2.65ZM86.46,110.13h3.3l-1.65-4.72-1.65,4.72Z"/>
    <path class="cls-5" d="M103.78,114.37h-1.98l-5.07-8.07v8.07h-1.98v-11.38h1.98l5.09,8.1v-8.1h1.96v11.38Z"/>
    <path class="cls-5" d="M118.74,102.99v7.6c0,1.21-.39,2.17-1.16,2.87-.77.71-1.8,1.06-3.09,1.06s-2.34-.35-3.1-1.04-1.15-1.66-1.15-2.89v-7.59h1.97v7.61c0,.76.19,1.34.58,1.74.39.4.95.6,1.7.6,1.52,0,2.28-.8,2.28-2.41v-7.55h1.97Z"/>
    <path class="cls-5" d="M129.69,110.67c-.11,1.21-.56,2.16-1.34,2.84s-1.82,1.02-3.12,1.02c-.91,0-1.7-.21-2.39-.64-.69-.43-1.22-1.04-1.6-1.83-.38-.79-.57-1.71-.59-2.76v-1.06c0-1.07.19-2.02.57-2.84.38-.82.93-1.45,1.64-1.89.71-.44,1.53-.66,2.46-.66,1.25,0,2.27.34,3.03,1.02s1.21,1.64,1.34,2.89h-1.97c-.09-.82-.33-1.41-.71-1.77-.38-.36-.94-.54-1.68-.54-.86,0-1.52.31-1.98.94s-.7,1.55-.71,2.76v1.01c0,1.23.22,2.17.66,2.82.44.65,1.08.97,1.93.97.78,0,1.36-.17,1.75-.52.39-.35.64-.93.74-1.74h1.97Z"/>
    <path class="cls-5" d="M140.64,114.37h-1.97v-5.05h-5.09v5.05h-1.98v-11.38h1.98v4.73h5.09v-4.73h1.97v11.38Z"/>
    <path class="cls-5" d="M145.23,114.37h-1.97v-11.38h1.97v11.38Z"/>
    <path class="cls-5" d="M56.24,133.57h-1.97v-5.05h-5.09v5.05h-1.98v-11.38h1.98v4.73h5.09v-4.73h1.97v11.38Z"/>
    <path class="cls-5" d="M65.38,128.49h-4.67v3.5h5.46v1.58h-7.44v-11.38h7.38v1.59h-5.41v3.14h4.67v1.56Z"/>
    <path class="cls-5" d="M70.02,133.57h-1.97v-11.38h1.97v11.38Z"/>
    <path class="cls-5" d="M78.56,130.64c0-.5-.18-.89-.53-1.16s-.99-.54-1.9-.82c-.92-.28-1.65-.58-2.19-.92-1.04-.65-1.55-1.5-1.55-2.55,0-.92.37-1.67,1.12-2.27.75-.59,1.72-.89,2.91-.89.79,0,1.5.15,2.12.44.62.29,1.11.71,1.46,1.25.35.54.53,1.14.53,1.79h-1.97c0-.59-.19-1.06-.56-1.39-.37-.34-.91-.5-1.6-.5-.65,0-1.15.14-1.5.41-.36.28-.54.66-.54,1.16,0,.42.19.76.58,1.04.39.28,1.02.55,1.91.81.89.26,1.6.56,2.13.9.54.34.93.72,1.18,1.16s.38.94.38,1.53c0,.95-.36,1.7-1.09,2.26s-1.71.84-2.96.84c-.82,0-1.58-.15-2.27-.46-.69-.3-1.23-.73-1.61-1.26s-.57-1.16-.57-1.88h1.98c0,.65.21,1.15.64,1.5.43.35,1.04.53,1.84.53.69,0,1.2-.14,1.55-.42.35-.28.52-.65.52-1.11Z"/>
    <path class="cls-5" d="M91.51,128.18c0,1.11-.19,2.09-.58,2.93-.39.84-.94,1.49-1.65,1.94-.72.45-1.54.68-2.47.68s-1.74-.23-2.46-.68c-.72-.45-1.28-1.09-1.67-1.93-.39-.83-.59-1.79-.6-2.88v-.64c0-1.11.2-2.09.59-2.94.39-.85.95-1.5,1.66-1.95.72-.45,1.54-.68,2.46-.68s1.75.22,2.46.67c.72.45,1.27,1.09,1.66,1.92s.59,1.81.59,2.92v.63ZM89.53,127.58c0-1.26-.24-2.23-.71-2.9s-1.15-1.01-2.03-1.01-1.52.33-2,1c-.48.67-.73,1.62-.74,2.84v.66c0,1.25.24,2.22.73,2.9.49.68,1.16,1.02,2.03,1.02s1.55-.33,2.02-1c.47-.67.71-1.64.71-2.92v-.59Z"/>
    <path class="cls-5" d="M96.9,128.65l-1.29,1.37v3.55h-1.98v-11.38h1.98v5.34l1.09-1.35,3.33-3.98h2.39l-4.23,5.04,4.47,6.34h-2.34l-3.42-4.91Z"/>
    <path class="cls-5" d="M112.2,122.19v7.6c0,1.21-.39,2.17-1.16,2.87s-1.8,1.06-3.09,1.06-2.34-.35-3.1-1.04-1.15-1.66-1.15-2.89v-7.59h1.97v7.61c0,.76.19,1.34.58,1.74.39.4.95.6,1.7.6,1.52,0,2.28-.8,2.28-2.41v-7.55h1.97Z"/>
    <path class="cls-5" d="M127.34,132.09c-.41.54-.98.94-1.71,1.22-.73.28-1.56.41-2.48.41s-1.8-.22-2.53-.65-1.3-1.05-1.7-1.86-.61-1.74-.62-2.82v-.89c0-1.72.41-3.06,1.23-4.03.82-.97,1.97-1.45,3.45-1.45,1.27,0,2.27.31,3.02.94.74.63,1.19,1.53,1.34,2.71h-1.94c-.22-1.37-1.01-2.05-2.38-2.05-.89,0-1.56.32-2.02.96-.46.64-.7,1.57-.71,2.81v.87c0,1.23.26,2.18.78,2.86.52.68,1.24,1.02,2.16,1.02,1.01,0,1.73-.23,2.16-.69v-2.23h-2.34v-1.5h4.31v4.36Z"/>
    <path class="cls-5" d="M136.32,128.49h-4.67v3.5h5.46v1.58h-7.44v-11.38h7.38v1.59h-5.41v3.14h4.67v1.56Z"/>
    <path class="cls-5" d="M143.05,129.19h-2.2v4.38h-1.98v-11.38h4c1.31,0,2.33.29,3.04.88.71.59,1.07,1.44,1.07,2.56,0,.76-.18,1.4-.55,1.91s-.88.91-1.54,1.18l2.55,4.74v.1h-2.12l-2.28-4.38ZM140.85,127.6h2.03c.67,0,1.19-.17,1.56-.5s.56-.8.56-1.38-.17-1.08-.52-1.41c-.35-.33-.86-.5-1.55-.52h-2.09v3.81Z"/>
    <path class="cls-5" d="M151.1,133.57h-1.97v-11.38h1.97v11.38Z"/>
  </g>
  <polygon class="cls-4" points="201.4 26.91 157.55 26.91 170.65 -2.85 201.4 -2.85 201.4 26.91"/>
  <text class="cls-2" transform="translate(168.97 17.69)"><tspan x="0" y="0">7ยบ</tspan></text>
</svg>