<?xml version="1.0" encoding="UTF-8"?>
<svg id="Layer_1" data-name="Layer 1" xmlns="http://www.w3.org/2000/svg" viewBox="0 0 198.43 198.43">
  <defs>
    <style>
      .cls-1 {
        fill: #e6e6e6;
      }

      .cls-2 {
        font-family: Roboto-Black, Roboto;
        font-size: 14px;
        font-weight: 800;
      }

      .cls-2, .cls-3 {
        fill: #fff;
      }

      .cls-3 {
        font-family: Roboto-Medium, Roboto;
        font-size: 11px;
        font-weight: 500;
        letter-spacing: -.02em;
      }

      .cls-4 {
        fill: #4462ac;
      }

      .cls-5 {
        letter-spacing: .03em;
      }

      .cls-6 {
        letter-spacing: .02em;
      }
    </style>
  </defs>
  <rect class="cls-1" x="-895.47" y="-1911.04" width="3930.35" height="5891"/>
  <rect class="cls-4" x="-2.98" y="-2.85" width="204.38" height="29.76"/>
  <text class="cls-2" transform="translate(78.53 18.64)"><tspan class="cls-6" x="0" y="0">T</tspan><tspan class="cls-5" x="9.07" y="0">SUKI</tspan></text>
  <g>
    <path class="cls-4" d="M53.77,103.23v7.6c0,1.21-.39,2.17-1.16,2.87-.77.71-1.8,1.06-3.09,1.06s-2.34-.35-3.1-1.04-1.15-1.66-1.15-2.89v-7.59h1.97v7.61c0,.76.19,1.34.58,1.74.39.4.95.6,1.7.6,1.52,0,2.28-.8,2.28-2.41v-7.55h1.97Z"/>
    <path class="cls-4" d="M60.22,110.23h-2.2v4.38h-1.98v-11.38h4c1.31,0,2.33.29,3.04.88.71.59,1.07,1.44,1.07,2.56,0,.76-.18,1.4-.55,1.91-.37.51-.88.91-1.54,1.18l2.55,4.74v.1h-2.12l-2.28-4.38ZM58.01,108.64h2.03c.67,0,1.19-.17,1.56-.5s.56-.8.56-1.38-.17-1.08-.52-1.41c-.35-.33-.86-.5-1.55-.52h-2.09v3.81Z"/>
    <path class="cls-4" d="M72.55,111.96h-4.41l-.92,2.65h-2.05l4.3-11.38h1.77l4.3,11.38h-2.06l-.93-2.65ZM68.7,110.36h3.3l-1.65-4.72-1.65,4.72Z"/>
    <path class="cls-4" d="M80.25,109.69l-1.29,1.37v3.55h-1.98v-11.38h1.98v5.34l1.09-1.35,3.33-3.98h2.39l-4.23,5.04,4.47,6.34h-2.34l-3.42-4.91Z"/>
    <path class="cls-4" d="M93.88,109.53h-4.67v3.5h5.46v1.58h-7.44v-11.38h7.38v1.59h-5.41v3.14h4.67v1.56Z"/>
    <path class="cls-4" d="M105.46,114.61h-1.98l-5.07-8.07v8.07h-1.98v-11.38h1.98l5.09,8.1v-8.1h1.96v11.38Z"/>
    <path class="cls-4" d="M118.05,111.68c0-.5-.18-.89-.53-1.16-.35-.27-.99-.54-1.9-.82-.92-.28-1.65-.58-2.19-.92-1.04-.65-1.55-1.5-1.55-2.55,0-.92.37-1.67,1.12-2.27.75-.59,1.72-.89,2.91-.89.79,0,1.5.15,2.12.44.62.29,1.11.71,1.46,1.25.35.54.53,1.14.53,1.79h-1.97c0-.59-.19-1.06-.56-1.39-.37-.34-.91-.5-1.6-.5-.65,0-1.15.14-1.5.41-.36.28-.54.66-.54,1.16,0,.42.19.76.58,1.04.39.28,1.02.55,1.91.81.89.26,1.6.56,2.13.9.54.34.93.72,1.18,1.16.25.44.38.94.38,1.53,0,.95-.36,1.7-1.09,2.26-.73.56-1.71.84-2.96.84-.82,0-1.58-.15-2.27-.46-.69-.3-1.23-.73-1.61-1.26-.38-.54-.57-1.16-.57-1.88h1.98c0,.65.21,1.15.64,1.5.43.35,1.04.53,1.84.53.69,0,1.2-.14,1.55-.42.35-.28.52-.65.52-1.11Z"/>
    <path class="cls-4" d="M128.29,111.96h-4.41l-.92,2.65h-2.05l4.3-11.38h1.77l4.3,11.38h-2.06l-.93-2.65ZM124.44,110.36h3.3l-1.65-4.72-1.65,4.72Z"/>
    <path class="cls-4" d="M135.27,108.62l2.62-5.39h2.19l-3.81,7.19v4.19h-1.98v-4.19l-3.82-7.19h2.2l2.62,5.39Z"/>
    <path class="cls-4" d="M149.04,103.23v7.6c0,1.21-.39,2.17-1.16,2.87-.77.71-1.8,1.06-3.09,1.06s-2.34-.35-3.1-1.04-1.15-1.66-1.15-2.89v-7.59h1.97v7.61c0,.76.19,1.34.58,1.74.39.4.95.6,1.7.6,1.52,0,2.28-.8,2.28-2.41v-7.55h1.97Z"/>
    <path class="cls-4" d="M54.26,132.33c-.41.54-.98.94-1.71,1.22-.73.28-1.56.41-2.48.41s-1.8-.22-2.53-.65c-.73-.43-1.3-1.05-1.7-1.86s-.61-1.74-.62-2.82v-.89c0-1.72.41-3.06,1.23-4.03.82-.97,1.97-1.45,3.45-1.45,1.27,0,2.27.31,3.02.94.74.63,1.19,1.53,1.34,2.71h-1.94c-.22-1.37-1.01-2.05-2.38-2.05-.89,0-1.56.32-2.02.96-.46.64-.7,1.57-.71,2.81v.87c0,1.23.26,2.18.78,2.86.52.68,1.24,1.02,2.16,1.02,1.01,0,1.73-.23,2.16-.69v-2.23h-2.34v-1.5h4.31v4.36Z"/>
    <path class="cls-4" d="M62.96,131.16h-4.41l-.92,2.65h-2.05l4.3-11.38h1.77l4.3,11.38h-2.06l-.93-2.65ZM59.11,129.56h3.3l-1.65-4.72-1.65,4.72Z"/>
    <path class="cls-4" d="M76.42,133.81h-1.98l-5.07-8.07v8.07h-1.98v-11.38h1.98l5.09,8.1v-8.1h1.96v11.38Z"/>
    <path class="cls-4" d="M81.48,122.43l3.28,8.72,3.27-8.72h2.55v11.38h-1.97v-3.75l.2-5.02-3.36,8.77h-1.41l-3.35-8.76.2,5.01v3.75h-1.97v-11.38h2.56Z"/>
    <path class="cls-4" d="M99.74,128.73h-4.67v3.5h5.46v1.58h-7.44v-11.38h7.38v1.59h-5.41v3.14h4.67v1.56Z"/>
    <path class="cls-4" d="M111.32,133.81h-1.98l-5.07-8.07v8.07h-1.98v-11.38h1.98l5.09,8.1v-8.1h1.96v11.38Z"/>
    <path class="cls-4" d="M126.28,122.43v7.6c0,1.21-.39,2.17-1.16,2.87-.77.71-1.8,1.06-3.09,1.06s-2.34-.35-3.1-1.04-1.15-1.66-1.15-2.89v-7.59h1.97v7.61c0,.76.19,1.34.58,1.74.39.4.95.6,1.7.6,1.52,0,2.28-.8,2.28-2.41v-7.55h1.97Z"/>
    <path class="cls-4" d="M137.23,130.1c-.11,1.21-.56,2.16-1.34,2.84s-1.82,1.02-3.12,1.02c-.91,0-1.7-.21-2.39-.64-.69-.43-1.22-1.04-1.6-1.83-.38-.79-.57-1.71-.59-2.76v-1.06c0-1.07.19-2.02.57-2.84.38-.82.93-1.45,1.64-1.89.71-.44,1.53-.66,2.46-.66,1.25,0,2.27.34,3.03,1.02s1.21,1.64,1.34,2.89h-1.97c-.09-.82-.33-1.41-.71-1.77-.38-.36-.94-.54-1.68-.54-.86,0-1.52.31-1.98.94-.46.63-.7,1.55-.71,2.76v1.01c0,1.23.22,2.17.66,2.81.44.65,1.08.97,1.93.97.78,0,1.36-.17,1.75-.52.39-.35.64-.93.74-1.74h1.97Z"/>
    <path class="cls-4" d="M148.19,133.81h-1.97v-5.05h-5.09v5.05h-1.98v-11.38h1.98v4.73h5.09v-4.73h1.97v11.38Z"/>
    <path class="cls-4" d="M152.77,133.81h-1.97v-11.38h1.97v11.38Z"/>
  </g>
  <text class="cls-3" transform="translate(167.5 17.69)"><tspan x="0" y="0">8ยบ</tspan></text>
</svg>